<mxfile host="Electron" modified="2023-05-30T22:58:00.777Z" agent="Mozilla/5.0 (X11; Linux x86_64) AppleWebKit/537.36 (KHTML, like Gecko) draw.io/21.1.2 Chrome/106.0.5249.199 Electron/21.4.3 Safari/537.36" etag="Gz57hSuzpj5JpBZubjD1" version="21.1.2" type="device">
  <diagram name="Page-1" id="aaaa8250-4180-3840-79b5-4cada1eebb92">
    <mxGraphModel dx="819" dy="497" grid="1" gridSize="10" guides="1" tooltips="1" connect="1" arrows="1" fold="1" page="1" pageScale="1" pageWidth="850" pageHeight="1100" background="none" math="0" shadow="0">
      <root>
        <mxCell id="0" />
        <mxCell id="1" parent="0" />
        <mxCell id="bygvQWpIjAm6UpdrzDzm-2" value="&lt;p style=&quot;line-height: 0%;&quot;&gt;&lt;br&gt;&lt;/p&gt;" style="sketch=0;pointerEvents=1;shadow=0;dashed=0;html=1;strokeColor=none;fillColor=#505050;labelPosition=center;verticalLabelPosition=bottom;verticalAlign=top;outlineConnect=0;align=center;shape=mxgraph.office.concepts.folder;" vertex="1" parent="1">
          <mxGeometry x="340" y="160" width="40" height="40" as="geometry" />
        </mxCell>
        <mxCell id="bygvQWpIjAm6UpdrzDzm-3" value="" style="sketch=0;pointerEvents=1;shadow=0;dashed=0;html=1;strokeColor=none;fillColor=#505050;labelPosition=center;verticalLabelPosition=bottom;verticalAlign=top;outlineConnect=0;align=center;shape=mxgraph.office.concepts.folder;" vertex="1" parent="1">
          <mxGeometry x="100" y="240" width="40" height="40" as="geometry" />
        </mxCell>
        <mxCell id="bygvQWpIjAm6UpdrzDzm-6" value="INKML" style="sketch=0;pointerEvents=1;shadow=0;dashed=0;html=1;strokeColor=none;fillColor=#505050;labelPosition=center;verticalLabelPosition=bottom;verticalAlign=top;outlineConnect=0;align=center;shape=mxgraph.office.concepts.folder;" vertex="1" parent="1">
          <mxGeometry x="20" y="320" width="40" height="40" as="geometry" />
        </mxCell>
        <mxCell id="bygvQWpIjAm6UpdrzDzm-7" value="LG" style="sketch=0;pointerEvents=1;shadow=0;dashed=0;html=1;strokeColor=none;fillColor=#505050;labelPosition=center;verticalLabelPosition=bottom;verticalAlign=top;outlineConnect=0;align=center;shape=mxgraph.office.concepts.folder;" vertex="1" parent="1">
          <mxGeometry x="100" y="320" width="40" height="40" as="geometry" />
        </mxCell>
        <mxCell id="bygvQWpIjAm6UpdrzDzm-8" value="SymLG" style="sketch=0;pointerEvents=1;shadow=0;dashed=0;html=1;strokeColor=none;fillColor=#505050;labelPosition=center;verticalLabelPosition=bottom;verticalAlign=top;outlineConnect=0;align=center;shape=mxgraph.office.concepts.folder;" vertex="1" parent="1">
          <mxGeometry x="180" y="320" width="40" height="40" as="geometry" />
        </mxCell>
        <mxCell id="bygvQWpIjAm6UpdrzDzm-20" value="" style="sketch=0;pointerEvents=1;shadow=0;dashed=0;html=1;strokeColor=none;fillColor=#505050;labelPosition=center;verticalLabelPosition=bottom;verticalAlign=top;outlineConnect=0;align=center;shape=mxgraph.office.concepts.folder;" vertex="1" parent="1">
          <mxGeometry x="340" y="240" width="40" height="40" as="geometry" />
        </mxCell>
        <mxCell id="bygvQWpIjAm6UpdrzDzm-21" value="INKML" style="sketch=0;pointerEvents=1;shadow=0;dashed=0;html=1;strokeColor=none;fillColor=#505050;labelPosition=center;verticalLabelPosition=bottom;verticalAlign=top;outlineConnect=0;align=center;shape=mxgraph.office.concepts.folder;" vertex="1" parent="1">
          <mxGeometry x="260" y="320" width="40" height="40" as="geometry" />
        </mxCell>
        <mxCell id="bygvQWpIjAm6UpdrzDzm-22" value="LG" style="sketch=0;pointerEvents=1;shadow=0;dashed=0;html=1;strokeColor=none;fillColor=#505050;labelPosition=center;verticalLabelPosition=bottom;verticalAlign=top;outlineConnect=0;align=center;shape=mxgraph.office.concepts.folder;" vertex="1" parent="1">
          <mxGeometry x="340" y="320" width="40" height="40" as="geometry" />
        </mxCell>
        <mxCell id="bygvQWpIjAm6UpdrzDzm-23" value="SymLG" style="sketch=0;pointerEvents=1;shadow=0;dashed=0;html=1;strokeColor=none;fillColor=#505050;labelPosition=center;verticalLabelPosition=bottom;verticalAlign=top;outlineConnect=0;align=center;shape=mxgraph.office.concepts.folder;" vertex="1" parent="1">
          <mxGeometry x="420" y="320" width="40" height="40" as="geometry" />
        </mxCell>
        <mxCell id="bygvQWpIjAm6UpdrzDzm-24" value="" style="sketch=0;pointerEvents=1;shadow=0;dashed=0;html=1;strokeColor=none;fillColor=#505050;labelPosition=center;verticalLabelPosition=bottom;verticalAlign=top;outlineConnect=0;align=center;shape=mxgraph.office.concepts.folder;" vertex="1" parent="1">
          <mxGeometry x="580" y="240" width="40" height="40" as="geometry" />
        </mxCell>
        <mxCell id="bygvQWpIjAm6UpdrzDzm-25" value="INKML" style="sketch=0;pointerEvents=1;shadow=0;dashed=0;html=1;strokeColor=none;fillColor=#505050;labelPosition=center;verticalLabelPosition=bottom;verticalAlign=top;outlineConnect=0;align=center;shape=mxgraph.office.concepts.folder;" vertex="1" parent="1">
          <mxGeometry x="500" y="320" width="40" height="40" as="geometry" />
        </mxCell>
        <mxCell id="bygvQWpIjAm6UpdrzDzm-26" value="LG" style="sketch=0;pointerEvents=1;shadow=0;dashed=0;html=1;strokeColor=none;fillColor=#505050;labelPosition=center;verticalLabelPosition=bottom;verticalAlign=top;outlineConnect=0;align=center;shape=mxgraph.office.concepts.folder;" vertex="1" parent="1">
          <mxGeometry x="580" y="320" width="40" height="40" as="geometry" />
        </mxCell>
        <mxCell id="bygvQWpIjAm6UpdrzDzm-27" value="SymLG" style="sketch=0;pointerEvents=1;shadow=0;dashed=0;html=1;strokeColor=none;fillColor=#505050;labelPosition=center;verticalLabelPosition=bottom;verticalAlign=top;outlineConnect=0;align=center;shape=mxgraph.office.concepts.folder;" vertex="1" parent="1">
          <mxGeometry x="660" y="320" width="40" height="40" as="geometry" />
        </mxCell>
        <mxCell id="bygvQWpIjAm6UpdrzDzm-28" value="" style="endArrow=none;html=1;rounded=0;" edge="1" parent="1" source="bygvQWpIjAm6UpdrzDzm-3" target="bygvQWpIjAm6UpdrzDzm-2">
          <mxGeometry width="50" height="50" relative="1" as="geometry">
            <mxPoint x="250" y="250" as="sourcePoint" />
            <mxPoint x="300" y="200" as="targetPoint" />
          </mxGeometry>
        </mxCell>
        <mxCell id="bygvQWpIjAm6UpdrzDzm-29" value="" style="endArrow=none;html=1;rounded=0;" edge="1" parent="1" source="bygvQWpIjAm6UpdrzDzm-20" target="bygvQWpIjAm6UpdrzDzm-2">
          <mxGeometry width="50" height="50" relative="1" as="geometry">
            <mxPoint x="150" y="265" as="sourcePoint" />
            <mxPoint x="350" y="210" as="targetPoint" />
          </mxGeometry>
        </mxCell>
        <mxCell id="bygvQWpIjAm6UpdrzDzm-34" value="CROHME" style="text;html=1;strokeColor=none;fillColor=none;align=center;verticalAlign=middle;whiteSpace=wrap;rounded=0;" vertex="1" parent="1">
          <mxGeometry x="270" y="165" width="60" height="30" as="geometry" />
        </mxCell>
        <mxCell id="bygvQWpIjAm6UpdrzDzm-35" value="synthetic_data" style="text;html=1;strokeColor=none;fillColor=none;align=center;verticalAlign=middle;whiteSpace=wrap;rounded=0;" vertex="1" parent="1">
          <mxGeometry x="90" y="210" width="60" height="30" as="geometry" />
        </mxCell>
        <mxCell id="bygvQWpIjAm6UpdrzDzm-36" value="train" style="text;html=1;strokeColor=none;fillColor=none;align=center;verticalAlign=middle;whiteSpace=wrap;rounded=0;" vertex="1" parent="1">
          <mxGeometry x="310" y="210" width="60" height="30" as="geometry" />
        </mxCell>
        <mxCell id="bygvQWpIjAm6UpdrzDzm-37" value="test" style="text;html=1;strokeColor=none;fillColor=none;align=center;verticalAlign=middle;whiteSpace=wrap;rounded=0;" vertex="1" parent="1">
          <mxGeometry x="570" y="210" width="60" height="30" as="geometry" />
        </mxCell>
        <mxCell id="bygvQWpIjAm6UpdrzDzm-38" value="" style="endArrow=none;html=1;rounded=0;" edge="1" parent="1" source="bygvQWpIjAm6UpdrzDzm-24" target="bygvQWpIjAm6UpdrzDzm-2">
          <mxGeometry width="50" height="50" relative="1" as="geometry">
            <mxPoint x="150" y="265" as="sourcePoint" />
            <mxPoint x="350" y="210" as="targetPoint" />
          </mxGeometry>
        </mxCell>
        <mxCell id="bygvQWpIjAm6UpdrzDzm-39" value="" style="endArrow=none;html=1;rounded=0;" edge="1" parent="1" source="bygvQWpIjAm6UpdrzDzm-6">
          <mxGeometry width="50" height="50" relative="1" as="geometry">
            <mxPoint x="70" y="330" as="sourcePoint" />
            <mxPoint x="120" y="280" as="targetPoint" />
          </mxGeometry>
        </mxCell>
        <mxCell id="bygvQWpIjAm6UpdrzDzm-40" value="" style="endArrow=none;html=1;rounded=0;" edge="1" parent="1" source="bygvQWpIjAm6UpdrzDzm-7">
          <mxGeometry width="50" height="50" relative="1" as="geometry">
            <mxPoint x="70" y="330" as="sourcePoint" />
            <mxPoint x="120" y="280" as="targetPoint" />
          </mxGeometry>
        </mxCell>
        <mxCell id="bygvQWpIjAm6UpdrzDzm-41" value="" style="endArrow=none;html=1;rounded=0;" edge="1" parent="1" source="bygvQWpIjAm6UpdrzDzm-8">
          <mxGeometry width="50" height="50" relative="1" as="geometry">
            <mxPoint x="70" y="330" as="sourcePoint" />
            <mxPoint x="120" y="280" as="targetPoint" />
          </mxGeometry>
        </mxCell>
        <mxCell id="bygvQWpIjAm6UpdrzDzm-42" value="" style="endArrow=none;html=1;rounded=0;" edge="1" parent="1">
          <mxGeometry width="50" height="50" relative="1" as="geometry">
            <mxPoint x="300" y="325" as="sourcePoint" />
            <mxPoint x="360" y="280" as="targetPoint" />
          </mxGeometry>
        </mxCell>
        <mxCell id="bygvQWpIjAm6UpdrzDzm-43" value="" style="endArrow=none;html=1;rounded=0;" edge="1" parent="1" source="bygvQWpIjAm6UpdrzDzm-21">
          <mxGeometry width="50" height="50" relative="1" as="geometry">
            <mxPoint x="300" y="325" as="sourcePoint" />
            <mxPoint x="360" y="280" as="targetPoint" />
          </mxGeometry>
        </mxCell>
        <mxCell id="bygvQWpIjAm6UpdrzDzm-45" value="" style="endArrow=none;html=1;rounded=0;" edge="1" parent="1" source="bygvQWpIjAm6UpdrzDzm-22">
          <mxGeometry width="50" height="50" relative="1" as="geometry">
            <mxPoint x="300" y="325" as="sourcePoint" />
            <mxPoint x="360" y="280" as="targetPoint" />
          </mxGeometry>
        </mxCell>
        <mxCell id="bygvQWpIjAm6UpdrzDzm-46" value="" style="endArrow=none;html=1;rounded=0;" edge="1" parent="1" source="bygvQWpIjAm6UpdrzDzm-23">
          <mxGeometry width="50" height="50" relative="1" as="geometry">
            <mxPoint x="300" y="325" as="sourcePoint" />
            <mxPoint x="360" y="280" as="targetPoint" />
          </mxGeometry>
        </mxCell>
        <mxCell id="bygvQWpIjAm6UpdrzDzm-47" value="" style="endArrow=none;html=1;rounded=0;" edge="1" parent="1" source="bygvQWpIjAm6UpdrzDzm-25">
          <mxGeometry width="50" height="50" relative="1" as="geometry">
            <mxPoint x="540" y="325" as="sourcePoint" />
            <mxPoint x="600" y="280" as="targetPoint" />
          </mxGeometry>
        </mxCell>
        <mxCell id="bygvQWpIjAm6UpdrzDzm-48" value="" style="endArrow=none;html=1;rounded=0;" edge="1" parent="1" source="bygvQWpIjAm6UpdrzDzm-26">
          <mxGeometry width="50" height="50" relative="1" as="geometry">
            <mxPoint x="540" y="325" as="sourcePoint" />
            <mxPoint x="600" y="280" as="targetPoint" />
          </mxGeometry>
        </mxCell>
        <mxCell id="bygvQWpIjAm6UpdrzDzm-49" value="" style="endArrow=none;html=1;rounded=0;" edge="1" parent="1" source="bygvQWpIjAm6UpdrzDzm-27">
          <mxGeometry width="50" height="50" relative="1" as="geometry">
            <mxPoint x="540" y="325" as="sourcePoint" />
            <mxPoint x="600" y="280" as="targetPoint" />
          </mxGeometry>
        </mxCell>
        <mxCell id="bygvQWpIjAm6UpdrzDzm-51" value="&lt;p style=&quot;line-height: 0%;&quot;&gt;&lt;br&gt;&lt;/p&gt;" style="sketch=0;pointerEvents=1;shadow=0;dashed=0;html=1;strokeColor=none;fillColor=#505050;labelPosition=center;verticalLabelPosition=bottom;verticalAlign=top;outlineConnect=0;align=center;shape=mxgraph.office.concepts.folder;" vertex="1" parent="1">
          <mxGeometry x="340" y="80" width="40" height="40" as="geometry" />
        </mxCell>
        <mxCell id="bygvQWpIjAm6UpdrzDzm-52" value="data" style="text;html=1;strokeColor=none;fillColor=none;align=center;verticalAlign=middle;whiteSpace=wrap;rounded=0;" vertex="1" parent="1">
          <mxGeometry x="280" y="90" width="60" height="30" as="geometry" />
        </mxCell>
        <mxCell id="bygvQWpIjAm6UpdrzDzm-53" value="" style="endArrow=none;html=1;rounded=0;" edge="1" parent="1" source="bygvQWpIjAm6UpdrzDzm-2">
          <mxGeometry width="50" height="50" relative="1" as="geometry">
            <mxPoint x="330" y="170" as="sourcePoint" />
            <mxPoint x="360" y="120" as="targetPoint" />
            <Array as="points">
              <mxPoint x="360" y="120" />
            </Array>
          </mxGeometry>
        </mxCell>
        <mxCell id="bygvQWpIjAm6UpdrzDzm-55" value="" style="endArrow=none;html=1;rounded=0;" edge="1" parent="1">
          <mxGeometry width="50" height="50" relative="1" as="geometry">
            <mxPoint x="380" y="180" as="sourcePoint" />
            <mxPoint x="520" y="160" as="targetPoint" />
          </mxGeometry>
        </mxCell>
        <mxCell id="bygvQWpIjAm6UpdrzDzm-56" value="" style="swimlane;startSize=0;spacingTop=1;" vertex="1" parent="1">
          <mxGeometry x="520" y="140" width="85" height="55" as="geometry" />
        </mxCell>
        <mxCell id="bygvQWpIjAm6UpdrzDzm-59" value="bimodal.csv&lt;br&gt;offline.csv&lt;br&gt;online.csv" style="text;html=1;align=center;verticalAlign=middle;resizable=0;points=[];autosize=1;strokeColor=none;fillColor=none;" vertex="1" parent="bygvQWpIjAm6UpdrzDzm-56">
          <mxGeometry width="90" height="60" as="geometry" />
        </mxCell>
      </root>
    </mxGraphModel>
  </diagram>
</mxfile>
